<?xml version="1.0" encoding="utf-8"?>
<!-- Svg Vector Icons : http://www.onlinewebfonts.com/icon -->
<!DOCTYPE svg PUBLIC "-//W3C//DTD SVG 1.1//EN" "http://www.w3.org/Graphics/SVG/1.1/DTD/svg11.dtd">
<svg version="1.1" xmlns="http://www.w3.org/2000/svg" xmlns:xlink="http://www.w3.org/1999/xlink" x="0px" y="0px" viewBox="0 0 1000 1000" enable-background="new 0 0 1000 1000" xml:space="preserve">
<metadata> Svg Vector Icons : http://www.onlinewebfonts.com/icon </metadata>
<g><path d="M988.2,385.3c-3.7-12.2-15.9-32.6-56.6-32.6c0,0,0,0,0,0l-266.4,8.5c-18.3,0-38.7-15.4-43.7-33L548.5,73c-12-42.2-35.6-48.5-48.5-48.5c-12.9,0-36.4,6.3-48.5,48.5l-73,255.2c-5.1,17.9-25.7,33-44.7,33l-261.6-8.4l-4.2-0.1c-40.4,0-52.6,20.4-56.3,32.6C8,397.7,7,422.2,42.4,446.6L258.8,596c15.1,10.4,23.2,35.8,17,53.3l-88.7,250.1c-8.8,24.8-8.2,44,1.9,58.6c7.7,11.1,20,17.5,33.7,17.5c13.3,0,27.4-5.9,42.9-18.1l206.7-163c12.7-10,42.5-10,55.2,0l206.7,163c15.5,12.2,29.6,18.1,42.9,18.1c13.8,0,26.1-6.4,33.7-17.5c10.1-14.6,10.7-33.8,1.9-58.6l-88.7-250.1c-6.2-17.5,1.9-42.9,17-53.4l216.4-149.4C993,422.1,992,397.7,988.2,385.3z M662.2,672l70.7,199.6L568,741.5c-18.5-14.5-42.6-22.6-68-22.6c-25.4,0-49.5,8-68,22.6l-164.9,130L337.8,672c16.4-46.1-2.1-103.9-42-131.4L123.2,421.4l208.7,6.7l2.9,0c47,0,94-35.7,107-81.3L500,143.3l58.2,203.6c13.1,45.6,60,81.3,107.3,81.3l211.3-6.8L704.2,540.6C664.2,568.1,645.8,625.8,662.2,672z"/></g>
</svg>